<?xml version="1.0" standalone="no"?>
<!DOCTYPE svg PUBLIC "-//W3C//DTD SVG 20010904//EN"
 "http://www.w3.org/TR/2001/REC-SVG-20010904/DTD/svg10.dtd">
<svg version="1.0" xmlns="http://www.w3.org/2000/svg"
 width="432.000000pt" height="432.000000pt" viewBox="0 0 432.000000 432.000000"
 preserveAspectRatio="xMidYMid meet">
<metadata>
Created by potrace 1.14, written by Peter Selinger 2001-2017
</metadata>
<g transform="translate(0.000000,432.000000) scale(0.100000,-0.100000)"
fill="#000000" stroke="none">
<path d="M1925 4279 c-469 -57 -890 -252 -1228 -569 -361 -339 -602 -819 -658
-1309 -19 -171 -7 -498 25 -646 144 -679 563 -1223 1167 -1515 418 -201 896
-261 1359 -169 875 174 1567 916 1685 1807 19 146 19 409 0 559 -60 462 -273
891 -610 1228 -322 322 -698 517 -1150 596 -139 24 -459 34 -590 18z m396
-499 c368 -37 713 -200 980 -461 494 -484 626 -1233 328 -1859 -282 -591 -885
-954 -1538 -927 -519 22 -991 287 -1284 721 -319 474 -363 1083 -116 1606 292
616 951 988 1630 920z"/>
<path d="M1815 3359 c-321 -41 -582 -203 -694 -431 -137 -276 -68 -571 173
-743 143 -101 256 -139 685 -226 313 -63 371 -83 413 -142 12 -16 23 -50 25
-76 9 -93 -50 -170 -176 -229 l-76 -36 -175 0 c-198 0 -247 10 -403 80 -69 30
-106 55 -168 112 l-79 74 -190 -158 c-105 -87 -189 -163 -187 -169 2 -5 40
-40 85 -76 160 -129 372 -225 608 -276 122 -26 142 -28 369 -27 226 1 246 3
340 27 128 34 300 120 384 192 154 130 242 288 260 466 26 251 -105 487 -332
598 -100 50 -202 75 -552 140 -347 65 -443 97 -484 166 -62 101 -18 215 105
272 76 35 155 46 274 39 177 -10 196 -14 290 -61 101 -51 196 -140 256 -241
10 -17 22 -8 125 84 226 204 259 235 259 244 0 18 -124 132 -202 185 -106 74
-265 148 -379 178 -157 41 -384 55 -554 34z"/>
</g>
</svg>
